HIERARCHY
ROOT Hips
{
	OFFSET 0.000000 0.000000 0.000000 
	CHANNELS 6 Xposition Yposition Zposition Zrotation Yrotation Xrotation
	JOINT LeftUpLeg
	{
		OFFSET 1.363060 -1.794630 0.839290 
		CHANNELS 3 Zrotation Yrotation Xrotation
		JOINT LeftLeg
		{
			OFFSET 2.448110 -6.726130 0.000000 
			CHANNELS 3 Zrotation Yrotation Xrotation
			JOINT LeftFoot
			{
				OFFSET 2.562200 -7.039590 0.000000 
				CHANNELS 3 Zrotation Yrotation Xrotation
				JOINT LeftToeBase
				{
					OFFSET 0.157640 -0.433110 2.322550 
					CHANNELS 3 Zrotation Yrotation Xrotation
					End Site
					{
						OFFSET 0.000000 0.000000 0.000000 
					}
				}
			}
		}
	}
	JOINT RightUpLeg
	{
		OFFSET -1.305520 -1.794630 0.839290 
		CHANNELS 3 Zrotation Yrotation Xrotation
		JOINT RightLeg
		{
			OFFSET -2.542530 -6.985550 0.000000 
			CHANNELS 3 Zrotation Yrotation Xrotation
			JOINT RightFoot
			{
				OFFSET -2.568260 -7.056230 0.000000 
				CHANNELS 3 Zrotation Yrotation Xrotation
				JOINT RightToeBase
				{
					OFFSET -0.164730 -0.452590 2.363150 
					CHANNELS 3 Zrotation Yrotation Xrotation
					End Site
					{
						OFFSET 0.000000 0.000000 0.000000 
					}
				}
			}
		}
	}
	JOINT Spine
	{
		OFFSET 0.028270 2.035590 -0.193380 
		CHANNELS 3 Zrotation Yrotation Xrotation
		JOINT Spine1
		{
			OFFSET 0.056720 2.048850 -0.042750 
			CHANNELS 3 Zrotation Yrotation Xrotation
			JOINT Neck1
			{
				OFFSET -0.054170 1.746240 0.172020 
				CHANNELS 3 Zrotation Yrotation Xrotation
				JOINT Head
				{
					OFFSET 0.104070 1.761360 -0.123970 
					CHANNELS 3 Zrotation Yrotation Xrotation
					End Site
					{
						OFFSET 0.000000 0.000000 0.000000 
					}
				}
			}
			JOINT LeftArm
			{
				OFFSET 3.362410 1.200890 -0.311210 
				CHANNELS 3 Zrotation Yrotation Xrotation
				JOINT LeftForeArm
				{
					OFFSET 4.983000 -0.000000 -0.000000 
					CHANNELS 3 Zrotation Yrotation Xrotation
					JOINT LeftHand
					{
						OFFSET 3.483560 -0.000000 -0.000000 
						CHANNELS 3 Zrotation Yrotation Xrotation
						JOINT LeftHandIndex1
						{
							OFFSET 0.715260 -0.000000 -0.000000 
							CHANNELS 3 Zrotation Yrotation Xrotation
							End Site
							{
								OFFSET 0.000000 0.000000 0.000000 
							}
						}
					}
				}
			}
			JOINT RightArm
			{
				OFFSET -3.136600 1.374050 -0.404650 
				CHANNELS 3 Zrotation Yrotation Xrotation
				JOINT RightForeArm
				{
					OFFSET -5.241900 -0.000000 -0.000000 
					CHANNELS 3 Zrotation Yrotation Xrotation
					JOINT RightHand
					{
						OFFSET -3.444170 -0.000000 -0.000000 
						CHANNELS 3 Zrotation Yrotation Xrotation
						JOINT RightHandIndex1
						{
							OFFSET -0.622530 -0.000000 -0.000000 
							CHANNELS 3 Zrotation Yrotation Xrotation
							End Site
							{
								OFFSET 0.000000 0.000000 0.000000 
							}
						}
					}
				}
			}
		}
	}
}
MOTION
Frames: 15
Frame Time: 0.041667
-2.418194 18.133045 -28.875375 -5.624498 50.838376 -7.609414 -17.544169 -0.482097 2.778025 3.427787 8.966625 28.515950 5.581711 -20.711998 -48.335290 0.726300 5.445300 15.183100 30.648271 7.756124 -19.573184 -7.201602 -12.227996 42.947062 -2.533083 8.153429 -32.007193 -0.056200 1.529400 -4.206600 -10.205469 -1.549390 20.807511 4.492799 -0.470035 -11.585024 12.763918 -13.634617 38.291611 1.448000 -2.960600 16.810500 -93.420742 -3.367143 19.411331 18.563991 -18.116510 -2.843736 -0.257837 0.001695 -18.334320 -7.125000 0.000000 0.000000 87.950396 2.248007 42.145307 -36.086741 36.951029 -13.780895 0.063430 0.151526 -17.615264 7.125000 0.000000 0.000000 
-2.398026 18.161430 -28.603668 -5.570863 50.619660 -6.895018 -17.598887 -0.493690 2.013095 3.570634 9.116150 28.957266 6.037490 -18.323933 -49.396542 0.555900 4.776100 13.271100 30.700466 7.971968 -19.976181 -7.105866 -12.131397 42.495531 -2.451471 8.134852 -31.548953 -0.052700 1.481800 -4.075500 -10.435516 -1.740332 20.081356 4.521021 -0.559375 -11.300463 12.647984 -13.468646 38.477357 1.431300 -2.906000 16.784400 -93.605392 -3.060856 19.125202 18.577456 -18.063629 -2.811844 -0.235882 0.006989 -17.976943 -7.125000 0.000000 0.000000 88.208473 1.659421 41.526588 -35.692313 36.588287 -13.462200 0.058225 0.159111 -18.528524 7.125000 0.000000 0.000000 
-2.378325 18.189534 -28.331587 -5.541533 50.417670 -6.243858 -17.618613 -0.479082 1.253601 3.715001 9.279278 29.445120 6.415179 -16.181056 -50.306121 0.389300 4.006600 11.095200 30.791297 8.145153 -20.317318 -7.004923 -12.025162 42.009963 -2.369862 8.064870 -31.063647 -0.046900 1.397400 -3.843100 -10.699619 -1.910816 19.386740 4.528896 -0.642771 -11.003699 12.437240 -13.324611 38.697398 1.369400 -2.864900 16.791400 -93.660508 -2.449209 19.803727 18.957368 -18.504184 -2.928715 -0.199305 -0.002654 -18.788582 -7.125000 0.000000 0.000000 88.506554 1.184885 41.146776 -35.212105 36.162590 -13.110421 0.089157 0.164519 -19.060966 7.125000 0.000000 0.000000 
-2.358997 18.213623 -28.063055 -5.429489 50.290312 -5.507052 -17.709718 -0.532217 0.465815 3.860498 9.435383 29.924936 6.721763 -14.156832 -51.039145 0.245900 3.191200 8.811500 30.809088 8.226757 -20.659886 -6.902500 -11.916550 41.527457 -2.294577 8.232280 -30.683042 -0.045700 1.379500 -3.793600 -10.861833 -2.091673 18.799389 4.553337 -0.731591 -10.654006 12.251659 -13.091802 38.800850 1.334700 -2.795300 16.765000 -93.812103 -2.375081 19.194266 18.832087 -18.269276 -2.846334 -0.184276 0.007264 -18.226846 -7.125000 0.000000 0.000000 88.753247 0.856851 40.579102 -34.602872 35.618402 -12.666604 0.131196 0.157548 -19.473909 7.125000 0.000000 0.000000 
-2.339483 18.239580 -27.791721 -5.368133 50.014037 -4.838723 -17.760204 -0.548537 -0.210643 3.998921 9.590329 30.397251 6.999662 -12.283881 -51.752317 0.146400 2.465500 6.794100 30.886174 8.535888 -20.933443 -6.800020 -11.807863 41.035523 -2.241320 8.227811 -30.370039 -0.054300 1.503800 -4.136100 -11.058459 -2.169490 18.181859 4.574317 -0.763794 -10.322023 11.862510 -12.992658 38.871089 1.154000 -2.785100 16.691900 -93.920819 -2.035191 19.987206 19.143155 -18.595757 -2.928982 -0.133465 -0.003675 -19.025267 -7.125000 0.000000 0.000000 89.115764 0.554996 39.847638 -33.833029 34.915625 -12.096013 0.155388 0.158973 -19.430055 7.125000 0.000000 0.000000 
-2.321182 18.262083 -27.521788 -5.285285 49.780043 -4.269108 -17.808101 -0.504482 -0.811596 4.128659 9.743828 30.870846 7.209255 -10.665379 -52.301398 0.069800 1.704700 4.690200 30.947911 8.675594 -21.099299 -6.699993 -11.696148 40.549642 -2.175108 8.296091 -29.998689 -0.057200 1.543100 -4.244400 -11.243698 -2.291634 17.587752 4.597911 -0.816204 -10.050436 11.607349 -12.838022 38.969486 1.064400 -2.747800 16.649400 -94.046901 -1.751363 20.271057 19.308819 -18.753008 -2.969795 -0.102161 -0.011014 -19.346616 -7.125000 0.000000 0.000000 89.426151 0.204623 39.157738 -33.182235 34.305347 -11.624660 0.183853 0.158617 -19.622217 7.125000 0.000000 0.000000 
-2.303535 18.281970 -27.252695 -5.195577 49.522748 -3.797965 -17.858567 -0.432240 -1.285467 4.249796 9.889660 31.325218 7.392402 -9.216004 -52.809598 0.022500 0.967800 2.660300 31.017375 8.772249 -21.143519 -6.601324 -11.581164 40.064073 -2.110648 8.395316 -29.640583 -0.061200 1.595600 -4.389400 -11.401773 -2.389021 17.066062 4.621306 -0.855143 -9.827608 11.364505 -12.691629 39.047856 0.980900 -2.714400 16.605000 -94.177904 -1.497145 20.607224 19.475033 -18.920043 -3.017519 -0.073752 -0.020771 -19.708072 -7.125000 0.000000 0.000000 89.746572 -0.116834 38.409993 -32.494662 33.651315 -11.134973 0.214307 0.156741 -19.700532 7.125000 0.000000 0.000000 
-2.286542 18.299244 -26.984443 -5.105776 49.237467 -3.428988 -17.901456 -0.321196 -1.647678 4.364750 10.033401 31.778690 7.554046 -7.931573 -53.284892 0.001600 0.255300 0.701400 31.097923 8.827485 -21.075346 -6.506055 -11.466432 39.591486 -2.047167 8.529032 -29.293395 -0.065800 1.655400 -4.554100 -11.526783 -2.462243 16.614751 4.641020 -0.881081 -9.658003 11.145521 -12.549477 39.109464 0.910100 -2.682500 16.559100 -94.319834 -1.290757 20.952730 19.621146 -19.069658 -3.063478 -0.049608 -0.031917 -20.047848 -7.125000 0.000000 0.000000 90.072031 -0.419279 37.593881 -31.781687 32.960588 -10.634558 0.244672 0.153182 -19.686912 7.125000 0.000000 0.000000 
-2.269829 18.315304 -26.717124 -5.016794 48.927257 -3.155173 -17.937787 -0.148145 -1.879783 4.468030 10.162181 32.182332 7.698901 -6.721511 -53.727306 0.005000 -0.457600 -1.257400 31.194050 8.828707 -20.890520 -6.408535 -11.343144 39.098046 -1.984073 8.667314 -28.943519 -0.071400 1.724200 -4.743900 -11.622844 -2.513614 16.225084 4.654924 -0.895441 -9.541562 10.951815 -12.413318 39.164331 0.853000 -2.652200 16.515800 -94.469571 -1.113868 21.339718 19.761694 -19.221114 -3.113278 -0.029272 -0.044688 -20.396452 -7.125000 0.000000 0.000000 90.397435 -0.712405 36.713194 -31.058032 32.245632 -10.134649 0.274521 0.147949 -19.571093 7.125000 0.000000 0.000000 
-2.253115 18.329309 -26.450926 -4.932800 48.596071 -2.942776 -17.972904 0.038631 -2.032162 4.562762 10.283885 32.568591 7.831562 -5.686716 -54.157331 0.029900 -1.115400 -3.066400 31.300169 8.806806 -20.648026 -6.316142 -11.223553 38.627221 -1.921398 8.825662 -28.599110 -0.077100 1.791500 -4.929800 -11.681673 -2.548209 15.880182 4.657904 -0.901713 -9.457383 10.781738 -12.276149 39.215162 0.810200 -2.621300 16.475700 -94.628317 -0.976882 21.722764 19.880915 -19.351858 -3.159450 -0.014500 -0.058231 -20.696899 -7.125000 0.000000 0.000000 90.711374 -0.990749 35.778103 -30.328293 31.508539 -9.639208 0.304662 0.140088 -19.372831 7.125000 0.000000 0.000000 
-2.235655 18.347983 -26.185101 -4.844616 48.254605 -2.797271 -18.011915 0.242538 -2.073438 4.642686 10.389641 32.905861 7.955709 -4.845905 -54.577542 0.068300 -1.685600 -4.637500 31.411899 8.729425 -20.325283 -6.227158 -11.104634 38.169299 -1.858133 9.010050 -28.257315 -0.083000 1.858400 -5.114400 -11.719460 -2.570974 15.579914 4.655891 -0.901970 -9.415677 10.637537 -12.136742 39.265293 0.782800 -2.588300 16.440000 -94.794353 -0.868639 22.099083 19.980598 -19.462380 -3.200499 -0.001497 -0.071503 -20.934410 -7.125000 0.000000 0.000000 91.014927 -1.258004 34.800064 -29.594576 30.752385 -9.151484 0.334942 0.129032 -19.072273 7.125000 0.000000 0.000000 
-2.218848 18.357320 -25.921330 -4.758274 47.906751 -2.640252 -18.054320 0.436415 -2.109007 4.711628 10.484338 33.211560 8.070250 -4.201634 -54.979414 0.112200 -2.159500 -5.946700 31.513255 8.688680 -20.066368 -6.151924 -11.005498 37.785108 -1.795400 9.199745 -27.925461 -0.088700 1.920400 -5.285800 -11.716115 -2.589344 15.276992 4.645033 -0.899308 -9.368911 10.494626 -11.991157 39.313950 0.758500 -2.554100 16.404600 -94.968876 -0.792877 22.480118 20.065327 -19.553859 -3.237479 0.009161 -0.084859 -21.114037 -7.125000 0.000000 0.000000 91.287219 -1.506205 33.783448 -28.862679 29.978950 -8.674868 0.366420 0.113954 -18.694508 7.125000 0.000000 0.000000 
-2.201762 18.364229 -25.659053 -4.671021 47.553308 -2.475757 -18.115051 0.584664 -2.101268 4.765031 10.559008 33.453622 8.187435 -3.741269 -55.398761 0.152700 -2.518000 -6.939500 31.608177 8.654811 -19.849029 -6.088048 -10.922573 37.463207 -1.730417 9.408885 -27.590451 -0.093900 1.976200 -5.439800 -11.691419 -2.606543 14.967051 4.625333 -0.895919 -9.320520 10.341501 -11.833708 39.359353 0.731900 -2.516500 16.367300 -95.147641 -0.737495 22.851516 20.135655 -19.627132 -3.269827 0.018386 -0.097570 -21.225519 -7.125000 0.000000 0.000000 91.530510 -1.733483 32.742336 -28.131507 29.187513 -8.209426 0.398688 0.095286 -18.211404 7.125000 0.000000 0.000000 
-2.184301 18.368991 -25.397897 -4.570965 47.187461 -2.300464 -18.180980 0.738019 -2.078494 4.805149 10.621162 33.658248 8.297619 -3.501467 -55.795880 0.182900 -2.754300 -7.595400 31.683516 8.653725 -19.676822 -6.041496 -10.865635 37.238052 -1.664796 9.650942 -27.270847 -0.098700 2.025500 -5.576100 -11.641595 -2.619594 14.664656 4.600294 -0.890626 -9.269866 10.221392 -11.669017 39.411837 0.725100 -2.474100 16.340500 -95.330525 -0.706194 23.211479 20.189283 -19.679262 -3.296381 0.026066 -0.109388 -21.270290 -7.125000 0.000000 0.000000 91.739903 -1.931538 31.690021 -27.397357 28.374109 -7.753566 0.431409 0.072470 -17.656267 7.125000 0.000000 0.000000 
-2.166935 18.371139 -25.138141 -4.457209 46.818415 -2.121437 -18.267199 0.853634 -2.005940 4.828651 10.662069 33.794218 8.409378 -3.442978 -56.196951 0.199300 -2.874800 -7.930300 31.740671 8.655199 -19.534248 -6.006088 -10.824918 37.074800 -1.593978 9.919410 -26.933887 -0.102300 2.062800 -5.679300 -11.575687 -2.633643 14.372642 4.572725 -0.885926 -9.222115 10.117608 -11.493860 39.463001 0.729300 -2.426700 16.317300 -95.515124 -0.686904 23.561746 20.233215 -19.719691 -3.319559 0.033436 -0.120226 -21.256376 -7.125000 0.000000 0.000000 91.915080 -2.097790 30.633849 -26.660648 27.540181 -7.308268 0.464472 0.045824 -17.024280 7.125000 0.000000 0.000000 
